name rise44.8762peak52.3436fall86.788.mot
datacolumns 19
datarows 17
range 19.19492800000000 19.22159100000000
endheader
time	ground_force1_vx	ground_force1_vy	ground_force1_vz	ground_force1_px	ground_force1_py	ground_force1_pz	ground_force2_vx	ground_force2_vy	ground_force2_vz	ground_force2_px	ground_force2_py	ground_force2_pz	ground_torque1_x	ground_torque1_y	ground_torque1_z	ground_torque2_x	ground_torque2_y	ground_torque2_z	
19.19492800000000	-11.92641700000000	41.89582800000000	-10.99464100000000	0.23992800000000	0.00000000000000	0.12736000000000	-35.89921200000000	767.64877600000000	-56.42988700000000	0.11851100000000	0.00000000000000	-0.09249200000000	0.00000000000000	-3.88356900000000	0.00000000000000	0.00000000000000	-18.87644500000000	0.00000000000000	
19.19658800000000	-13.17445200000000	49.39615400000000	-12.36111100000000	0.24578500000000	0.00000000000000	0.12843100000000	-37.05635700000000	764.51658899999995	-56.05734900000000	0.11747600000000	0.00000000000000	-0.09236800000000	0.00000000000000	-4.48259600000000	0.00000000000000	0.00000000000000	-18.91929100000000	0.00000000000000	
19.19826300000000	-14.22485400000000	57.06974500000000	-13.60020300000000	0.25101000000000	0.00000000000000	0.12939700000000	-38.21533200000000	761.19582600000001	-55.65957100000000	0.11644300000000	0.00000000000000	-0.09224100000000	0.00000000000000	-5.05718000000000	0.00000000000000	0.00000000000000	-18.96084700000000	0.00000000000000	
19.19992400000000	-15.04639600000000	64.82488400000000	-14.68205500000000	0.25571200000000	0.00000000000000	0.13027600000000	-39.37394400000000	757.68243600000005	-55.23626000000000	0.11541400000000	0.00000000000000	-0.09211200000000	0.00000000000000	-5.59426200000000	0.00000000000000	0.00000000000000	-19.00071900000000	0.00000000000000	
19.20159100000000	-15.62042800000000	72.59067800000000	-15.58654100000000	0.25997500000000	0.00000000000000	0.13108200000000	-40.52991000000000	753.97248400000001	-54.78716300000000	0.11439000000000	0.00000000000000	-0.09198000000000	0.00000000000000	-6.08391400000000	0.00000000000000	0.00000000000000	-19.03849500000000	0.00000000000000	
19.20325500000000	-15.94073800000000	80.31950300000000	-16.30341200000000	0.26386500000000	0.00000000000000	0.13182700000000	-41.68086900000000	750.06216900000004	-54.31207000000000	0.11337000000000	0.00000000000000	-0.09184500000000	0.00000000000000	-6.51958500000000	0.00000000000000	0.00000000000000	-19.07375300000000	0.00000000000000	
19.20492100000000	-16.01242100000000	87.98713300000000	-16.83161800000000	0.26743600000000	0.00000000000000	0.13251800000000	-42.82437800000000	745.94784300000003	-53.81082300000000	0.11235500000000	0.00000000000000	-0.09170900000000	0.00000000000000	-6.89803400000000	0.00000000000000	0.00000000000000	-19.10605600000000	0.00000000000000	
19.20658900000000	-15.85001600000000	95.59091200000000	-17.17798600000000	0.27073200000000	0.00000000000000	0.13316300000000	-43.95793000000000	741.62603400000000	-53.28330700000000	0.11134700000000	0.00000000000000	-0.09156900000000	0.00000000000000	-7.21899600000000	0.00000000000000	0.00000000000000	-19.13495800000000	0.00000000000000	
19.20825600000000	-15.47518400000000	103.14646200000000	-17.35548300000000	0.27378700000000	0.00000000000000	0.13376900000000	-45.07895100000000	737.09346600000003	-52.72946500000000	0.11034500000000	0.00000000000000	-0.09142700000000	0.00000000000000	-7.48467100000000	0.00000000000000	0.00000000000000	-19.16000400000000	0.00000000000000	
19.20992300000000	-14.91421000000000	110.68346500000000	-17.38128100000000	0.27663000000000	0.00000000000000	0.13434000000000	-46.18481200000000	732.34707900000001	-52.14928900000000	0.10935200000000	0.00000000000000	-0.09128200000000	0.00000000000000	-7.69909000000000	0.00000000000000	0.00000000000000	-19.18073000000000	0.00000000000000	
19.21159200000000	-14.19554500000000	118.24101899999999	-17.27480900000000	0.27928700000000	0.00000000000000	0.13487900000000	-47.27283800000000	727.38405299999999	-51.54282800000000	0.10836700000000	0.00000000000000	-0.09113500000000	0.00000000000000	-7.86744800000000	0.00000000000000	0.00000000000000	-19.19666600000000	0.00000000000000	
19.21326100000000	-13.34760900000000	125.86302400000000	-17.05597000000000	0.28177700000000	0.00000000000000	0.13539200000000	-48.34031400000000	722.20182299999999	-50.91018800000000	0.10739100000000	0.00000000000000	-0.09098500000000	0.00000000000000	-7.99546000000000	0.00000000000000	0.00000000000000	-19.20733900000000	0.00000000000000	
19.21493000000000	-12.39695900000000	133.59396200000000	-16.74362200000000	0.28411700000000	0.00000000000000	0.13588000000000	-49.38449300000000	716.79810599999996	-50.25153500000000	0.10642600000000	0.00000000000000	-0.09083200000000	0.00000000000000	-8.08878400000000	0.00000000000000	0.00000000000000	-19.21227100000000	0.00000000000000	
19.21659600000000	-11.36691700000000	141.47533200000001	-16.35439800000000	0.28632200000000	0.00000000000000	0.13634600000000	-50.40260800000000	711.17091500000004	-49.56709300000000	0.10547100000000	0.00000000000000	-0.09067700000000	0.00000000000000	-8.15255100000000	0.00000000000000	0.00000000000000	-19.21098600000000	0.00000000000000	
19.21826000000000	-10.27668100000000	149.54290300000000	-15.90191600000000	0.28840400000000	0.00000000000000	0.13679300000000	-51.39187700000000	705.31857600000001	-48.85715000000000	0.10452900000000	0.00000000000000	-0.09051800000000	0.00000000000000	-8.19102600000000	0.00000000000000	0.00000000000000	-19.20300600000000	0.00000000000000	
19.21992400000000	-9.14090400000000	157.82485100000000	-15.39634100000000	0.29037200000000	0.00000000000000	0.13722100000000	-52.34951700000000	699.23974399999997	-48.12205500000000	0.10359900000000	0.00000000000000	-0.09035700000000	0.00000000000000	-8.20738700000000	0.00000000000000	0.00000000000000	-19.18785800000000	0.00000000000000	
19.22159100000000	-7.96968000000000	166.34075500000000	-14.84430200000000	0.29223700000000	0.00000000000000	0.13763300000000	-53.27275000000000	692.93341899999996	-47.36222400000000	0.10268300000000	0.00000000000000	-0.09019300000000	0.00000000000000	-8.20363900000000	0.00000000000000	0.00000000000000	-19.16507300000000	0.00000000000000	
